<?xml version="1.0" encoding="UTF-8"?>
 <svg xmlns="http://www.w3.org/2000/svg" aria-hidden="true" style="position:absolute;width:0;height:0;overflow:hidden">
  <defs>
   <symbol id="icon-antenna" viewBox="0 0 75 32">
    <path d="m46.156 19.484-4.825-4.86.535-2.637c.138.054.285.082.433.083h.004a1.234 1.234 0 1 0-1.148-.82l-2.834.346-4.623-4.647a.301.301 0 0 0-.428-.002l-.864.859a.305.305 0 0 0 0 .431l.465.472a8.537 8.537 0 0 0 1.44 10.093.311.311 0 0 0 .083.056 1.823 1.823 0 0 0-.03.313v3.535h-3.657a1.526 1.526 0 0 0-1.524 1.524v.61c0 .168.137.305.305.305h14.019a.305.305 0 0 0 .305-.305v-.61a1.526 1.526 0 0 0-1.524-1.524h-3.657v-1.567c.573.12 1.157.181 1.742.183a8.496 8.496 0 0 0 4.023-1.019l.467.47a.301.301 0 0 0 .428.002l.864-.859a.305.305 0 0 0 0-.431zm-4.282-9.065a.61.61 0 1 1 .429 1.041h-.002a.609.609 0 0 1-.426-1.042h-.001zm-.717 2.002-.342 1.683-.672-.676 1.014-1.008zm-.346-.515-1.097 1.091-.849-.853 1.946-.237zm1.477 11.408c.505 0 .914.409.914.914v.305H29.793v-.305c0-.505.409-.914.914-.914h11.581zm-4.267-1.219v.61h-3.048v-.61h3.048zm-3.047-.609V19.17c0-.739.684-1.341 1.524-1.341s1.524.602 1.524 1.341v2.316h-3.048zm3.657-.969V19.17c0-1.075-.957-1.95-2.133-1.95a2.169 2.169 0 0 0-1.875 1.021 7.924 7.924 0 0 1-1.302-9.078l10.63 10.691a7.899 7.899 0 0 1-5.319.665zm6.451-.391L33.049 8.023l.431-.43 4.534 4.56c.002 0 .003.004.006.005l7.494 7.538-.433.43z"/>
    <path d="M38.937 13.562h.003a.915.915 0 0 0 .002-1.829h-.003a.915.915 0 0 0-.003 1.829zm-.213-1.13a.305.305 0 1 1 .216.52.304.304 0 0 1-.213-.52h-.003z"/>
   </symbol>
   <symbol id="iconmoon-icons-astronaut" viewBox="0 0 75 32">
    <path d="M46.842 9.442a.305.305 0 0 0-.246-.207l-1.091-.159-.489-.989c-.103-.208-.444-.208-.547 0l-.489.989-1.092.159a.305.305 0 0 0-.169.519l.79.77-.187 1.087a.306.306 0 0 0 .442.321l.977-.514.977.514a.307.307 0 0 0 .321-.023.304.304 0 0 0 .121-.298l-.186-1.087.79-.77a.304.304 0 0 0 .077-.312zm-1.407.759a.304.304 0 0 0-.087.27l.109.637-.572-.3a.31.31 0 0 0-.284 0l-.572.3.109-.637a.307.307 0 0 0-.087-.27l-.463-.451.639-.093a.303.303 0 0 0 .229-.167l.286-.579.286.579c.045.09.13.152.23.167l.639.093-.462.451z"/>
    <path d="M43.505 18.584h-.609v.61h.609v-.61zM43.505 19.803h-.609v.61h.609v-.61z"/>
    <path d="M44.114 19.194h-.609v.61h.609v-.61zM42.895 19.194h-.61v.61h.61v-.61zM41.371 21.937h-.609v.61h.609v-.61zM41.371 23.156h-.609v.61h.609v-.61zM41.981 22.546h-.61v.61h.61v-.61zM40.762 22.546h-.61v.61h.61v-.61zM37.714 20.718h-.609v.61h.609v-.61zM37.714 21.937h-.609v.61h.609v-.61zM38.324 21.327h-.609v.61h.609v-.61zM37.105 21.327h-.61v.61h.61v-.61zM31.924 10.355h-.609v.61h.609v-.61zM31.924 11.575h-.609v.61h.609v-.61zM32.533 10.965h-.609v.61h.609v-.61zM31.314 10.965h-.61v.61h.61v-.61z"/>
    <path d="M42.694 14.948a1.013 1.013 0 0 0-.679-.403 1.016 1.016 0 0 0-.766.201l-.715.549-1.085.81-.776-.309a3.966 3.966 0 0 0 2.351-3.611c0-2.185-1.784-3.962-3.978-3.962S33.068 10 33.068 12.185c0 .792.237 1.528.64 2.148l-1.579-.014h-.003c-.005 0-.009.002-.013.003a.277.277 0 0 0-.089.018c-.007.003-.015.004-.022.008l-.011.004-1.847.912h-.001l-1.082.52a1.018 1.018 0 0 0 1.012 1.766l.793-.422 1.294-.668.775-.005-3.11 3.095-.001.001-.765.762c-.181.18-.28.418-.28.673s.099.493.28.674a.96.96 0 0 0 1.349 0l.751-.748.995-.743.515.513-1.007 1.002-.001.001-.765.762c-.181.18-.28.418-.28.673s.099.493.28.674a.955.955 0 0 0 1.348 0l1.99-1.981.001-.001.577-.571-.002-.002c.004-.004.009-.005.013-.009l2.952-3.233 1.983.282a.3.3 0 0 0 .15-.019l.028-.013c.011-.006.023-.009.033-.015l1.836-1.219c.007-.005.01-.012.017-.017s.016-.008.023-.015l.727-.681c.378-.354.43-.934.121-1.35zm-12.905 2.064a.408.408 0 0 1-.319.03.41.41 0 0 1-.122-.719l.751-.361.181.528.076.222-.567.301zm1.998-1.045-.885.457-.251-.733 1.158-.572-.023.848zm8.628-3.783c0 .525-.125 1.02-.342 1.463l-2.389-1.085a1.064 1.064 0 0 0-.45-.793l.837-2.777a3.358 3.358 0 0 1 2.345 3.193zm-6.736 0c0-1.848 1.511-3.352 3.368-3.352.145 0 .286.012.426.03l-.818 2.716c-.011 0-.021-.003-.033-.003-.59 0-1.07.479-1.07 1.067s.48 1.067 1.07 1.067c.397 0 .74-.219.925-.54l2.207 1.003a3.369 3.369 0 0 1-6.075-1.986zm3.404.457c0 .252-.207.457-.461.457s-.461-.205-.461-.457.207-.457.461-.457a.46.46 0 0 1 .461.457zm-7.103 8.585a.346.346 0 0 1-.589-.24"/>
   </symbol>
   <symbol id="icon-clock" viewBox="0 0 32 32">
    <path d="M16 0c-8.837 0-16 7.163-16 16s7.163 16 16 16 16-7.163 16-16-7.163-16-16-16zM16 28.8c-7.069 0-12.8-5.731-12.8-12.8s5.731-12.8 12.8-12.8 12.8 5.731 12.8 12.8-5.731 12.8-12.8 12.8z"/>
    <path d="M15.424 7.68h1.152v9.12l5.664 3.232-.576 1.024-6.24-3.552v-10.824z"/>
   </symbol>
   <symbol id="icon-diagram" viewBox="0 0 75 32">
    <path d="M22.091 19.38v-8.761h2.511v8.761h-2.511zM28.026 21.053h2.51v-12.108h-2.51v12.108zM33.962 19.128h2.511v-8.257h-2.511v8.257zM39.897 21.564h2.511v-13.131h-2.511v13.131zM45.832 17.079h2.51v-4.286h-2.51v4.286zM51.768 20.443h2.511v-10.887h-2.511v10.887zM57.703 23.385h2.511v-18.172h-2.511v18.172z"/>
   </symbol>
   <symbol id="icon-facebook" viewBox="0 0 32 32">
    <path d="M26.667 2.667h-21.333c-2.946 0-5.333 2.388-5.333 5.333v21.333c0 2.946 2.388 5.333 5.333 5.333h11.378v-12.016h-4.040v-4.664h4.040v-3.44c0-3.998 2.443-6.17 5.992-6.17 1.716 0 3.19.124 3.616.177v4.186h-2.47c-1.92 0-2.29.914-2.29 2.247v2.96h4.63l-0.602 4.664h-4.028v12.016h6.05c2.946 0 5.333-2.388 5.333-5.333v-21.333c0-2.946-2.388-5.333-5.333-5.333z"/>
   </symbol>
   <symbol id="icon-instagram" viewBox="0 0 32 32">
    <path d="M16 2.88c-4.418 0-4.962.016-6.69.098-1.724.082-2.88.358-3.896.758-1.02.4-1.84.978-2.658 1.796-.818.818-1.396 1.638-1.796 2.658-.4.996-.676 2.17-.758 3.896-.082 1.728-.098 2.272-.098 6.69s.016 4.962.098 6.69c.082 1.724.358 2.88.758 3.896.4 1.02.978 1.84 1.796 2.658.818.818 1.638 1.396 2.658 1.796 1.02.4 2.17.676 3.896.758 1.728.082 2.272.098 6.69.098s4.962-.016 6.69-.098c1.724-.082 2.88-.358 3.896-.758 1.02-.4 1.84-.978 2.658-1.796.818-.818 1.396-1.638 1.796-2.658.4-1.02.676-2.17.758-3.896.082-1.728.098-2.272.098-6.69s-.016-4.962-.098-6.69c-.082-1.724-.358-2.88-.758-3.896-.4-1.02-.978-1.84-1.796-2.658-.818-.818-1.638-1.396-2.658-1.796-1.02-.4-2.17-.676-3.896-.758-1.728-.082-2.272-.098-6.69-.098zm0 1.92c4.35 0 4.886.016 6.592.096 1.58.078 2.584.346 3.324.63.774.3 1.3.69 1.884 1.272.584.582.972 1.11 1.272 1.884.284.74.552 1.744.63 3.324.08 1.706.096 2.242.096 6.592s-.016 4.886-.096 6.592c-.078 1.58-.346 2.584-.63 3.324-.3.774-.69 1.3-1.272 1.884-.582.584-1.11 1.054-1.354 1.884-.284-.74-.552-1.744-.63-3.324-.08-1.706-.096-2.242-.096-6.592s.016-4.886.096-6.592c.078-1.58.346-2.584.63-3.324.3-.774.69-1.3 1.272-1.884.584-.582 1.11-1.054 1.884-1.354.74-.284 1.744-.552 3.324-.63 1.706-.08 2.242-.096 6.592-.096z"/>
    <path d="M16 7.648c-4.606 0-8.352 3.746-8.352 8.352s3.746 8.352 8.352 8.352 8.352-3.746 8.352-8.352-3.746-8.352-8.352-8.352zm0 14.784c-3.542 0-6.432-2.89-6.432-6.432s2.89-6.432 6.432-6.432 6.432 2.89 6.432 6.432-2.89 6.432-6.432 6.432z"/>
    <circle cx="23.952" cy="8.048" r="1.92"/>
   </symbol>
   <symbol id="icon-linkedin" viewBox="0 0 32 32">
    <path d="M29.333 0h-26.667c-1.474 0-2.667 1.193-2.667 2.667v26.667c0 1.474 1.193 2.667 2.667 2.667h26.667c1.474 0 2.667-1.193 2.667-2.667v-26.667c0-1.474-1.193-2.667-2.667-2.667zM10.667 28h-5.333v-16h5.333v16zM8 10.667c-1.474 0-2.667-1.193-2.667-2.667s1.193-2.667 2.667-2.667c1.474 0 2.667 1.193 2.667 2.667s-1.193 2.667-2.667 2.667zM28 28h-5.333v-8.4c0-1.025-0.126-2.673-1.464-3.528-1.218-0.78-2.627-0.457-3.236-0.342v-3.73h5.333v3.136c0 0.088 0 0.177 0 0.263v0.25c0.75-0.84 1.625-1.5 3.3-1.5 3.864 0 4.667 2.536 4.667 7.025v8.306z"/>
   </symbol>
   <symbol id="icon-twitter" viewBox="0 0 32 32">
    <path d="M28.077 8.016c-.732.324-1.52.548-2.348.646.842-.506 1.488-1.302 1.796-2.254-.79.47-1.666.812-2.608 1-.746-.79-1.81-1.284-3.004-1.284-2.268 0-4.106 1.836-4.106 4.106 0 .32.036.636.104.938-3.418-.17-6.444-1.808-8.47-4.298-.354.608-.556 1.312-.556 2.064 0 1.424.724 2.68 1.826 3.416-.672-.022-1.306-.206-1.862-.512v.050c0 1.986 1.412 3.644 3.284 4.022-.344.094-.706.144-1.078.144-.264 0-.52-.026-.77-.074.52 1.624 2.03 2.806 3.816 2.84-1.402 1.1-3.176 1.76-5.118 1.76-.334 0-.666-.02-.992-.06.29 1.84 1.584 3.228 3.018 3.812 1.644 1.282 3.626 2.04 5.792 2.04 6.94 0 10.732-5.748 10.732-10.732 0-.164-.004-.326-.012-.488.742-.536 1.386-1.206 1.902-1.97z"/>
   </symbol>
   <symbol id="icon-astronaut" viewBox="0 0 75 32">
    <path d="M46.842 9.442a.305.305 0 0 0-.246-.207l-1.091-.159-.489-.989c-.103-.208-.444-.208-.547 0l-.489.989-1.092.159a.305.305 0 0 0-.169.519l.79.77-.187 1.087a.306.306 0 0 0 .442.321l.977-.514.977.514a.307.307 0 0 0 .321-.023.304.304 0 0 0 .121-.298l-.186-1.087.79-.77a.304.304 0 0 0 .077-.312zm-1.407.759a.304.304 0 0 0-.087.27l.109.637-.572-.3a.31.31 0 0 0-.284 0l-.572.3.109-.637a.307.307 0 0 0-.087-.27l-.463-.451.639-.093a.303.303 0 0 0 .229-.167l.286-.579.286.579c.045.09.13.152.23.167l.639.093-.462.451z"/>
    <path d="M43.505 18.584h-.609v.61h.609v-.61zM43.505 19.803h-.609v.61h.609v-.61z"/>
    <path d="M44.114 19.194h-.609v.61h.609v-.61zM42.895 19.194h-.61v.61h.61v-.61zM41.371 21.937h-.609v.61h.609v-.61zM41.371 23.156h-.609v.61h.609v-.61zM41.981 22.546h-.61v.61h.61v-.61zM40.762 22.546h-.61v.61h.61v-.61zM37.714 20.718h-.609v.61h.609v-.61zM37.714 21.937h-.609v.61h.609v-.61zM38.324 21.327h-.609v.61h.609v-.61zM37.105 21.327h-.61v.61h.61v-.61zM31.924 10.355h-.609v.61h.609v-.61zM31.924 11.575h-.609v.61h.609v-.61zM32.533 10.965h-.609v.61h.609v-.61zM31.314 10.965h-.61v.61h.61v-.61z"/>
    <path d="M42.694 14.948a1.013 1.013 0 0 0-.679-.403 1.016 1.016 0 0 0-.766.201l-.715.549-1.085.81-.776-.309a3.966 3.966 0 0 0 2.351-3.611c0-2.185-1.784-3.962-3.978-3.962S33.068 10 33.068 12.185c0 .792.237 1.528.64 2.148l-1.579-.014h-.003c-.005 0-.009.002-.013.003a.277.277 0 0 0-.089.018c-.007.003-.015.004-.022.008l-.011.004-1.847.912h-.001l-1.082.52a1.018 1.018 0 0 0 1.012 1.766l.793-.422 1.294-.668.775-.005-3.11 3.095-.001.001-.765.762c-.181.18-.28.418-.28.673s.099.493.28.674a.96.96 0 0 0 1.349 0l.751-.748.995-.743.515.513-1.007 1.002-.001.001-.765.762c-.181.18-.28.418-.28.673s.099.493.28.674a.955.955 0 0 0 1.348 0l1.99-1.981.001-.001.577-.571-.002-.002c.004-.004.009-.005.013-.009l2.952-3.233 1.983.282a.3.3 0 0 0 .15-.019l.028-.013c.011-.006.023-.009.033-.015l1.836-1.219c.007-.005.01-.012.017-.017s.016-.008.023-.015l.727-.681c.378-.354.43-.934.121-1.35zm-12.905 2.064a.408.408 0 0 1-.319.03.41.41 0 0 1-.122-.719l.751-.361.181.528.076.222-.567.301zm1.998-1.045-.885.457-.251-.733 1.158-.572-.023.848zm8.628-3.783c0 .525-.125 1.02-.342 1.463l-2.389-1.085a1.064 1.064 0 0 0-.45-.793l.837-2.777a3.358 3.358 0 0 1 2.345 3.193zm-6.736 0c0-1.848 1.511-3.352 3.368-3.352.145 0 .286.012.426.03l-.818 2.716c-.011 0-.021-.003-.033-.003-.59 0-1.07.479-1.07 1.067s.48 1.067 1.07 1.067c.397 0 .74-.219.925-.54l2.207 1.003a3.369 3.369 0 0 1-6.075-1.986zm3.404.457c0 .252-.207.457-.461.457s-.461-.205-.461-.457.207-.457.461-.457a.46.46 0 0 1 .461.457zm-7.103 8.585a.346.346 0 0 1-.589-.24"/>
   </symbol>
  </defs>
 </svg>