<svg xmlns="http://www.w3.org/2000/svg" aria-hidden="true" style="position:absolute;width:0;height:0;overflow:hidden">
  <defs>
    <symbol id="icon-antenna" viewBox="0 0 64 64">
  <path d="M61.5463 44.1952L44.6599 27.1851L46.534 17.9541C47.0176 18.1429 47.5318 18.2416 48.0508 18.2453H48.0636C50.4482 18.2735 52.404 16.3633 52.4323 13.9788C52.4606 11.5943 50.5503 9.6384 48.1658 9.61013C45.7812 9.582 43.8254 11.4921 43.7971 13.8767C43.7911 14.3869 43.8755 14.8941 44.0466 15.3749L34.1266 16.5856L17.9452 0.32C17.7467 0.117467 17.4757 0.00226667 17.1921 0C16.9121 0.00146667 16.644 0.112933 16.4455 0.3104L13.4204 3.3184C13.004 3.73493 13.004 4.41013 13.4204 4.82667L15.0481 6.47787C8.74201 18.0737 10.7903 32.4335 20.0871 41.8037C20.1724 41.8853 20.2713 41.9513 20.3793 41.9989C20.3121 42.3599 20.2771 42.7261 20.2748 43.0933V55.4667H7.47481C4.53081 55.4701 2.14495 57.856 2.14148 60.8V62.9333C2.14148 63.5224 2.61908 64 3.20815 64H52.2748C52.8639 64 53.3415 63.5224 53.3415 62.9333V60.8C53.338 57.856 50.9522 55.4701 48.0082 55.4667H35.2082V49.9829C37.2134 50.4035 39.2564 50.6179 41.3052 50.6229C46.2215 50.6176 51.0595 49.392 55.3852 47.056L57.0215 48.7019C57.22 48.9044 57.491 49.0196 57.7746 49.0219C58.0546 49.0204 58.3227 48.9089 58.5212 48.7115L61.5463 45.7035C61.9627 45.2869 61.9627 44.6117 61.5463 44.1952ZM46.5596 12.4661C47.395 11.6352 48.7458 11.6389 49.5766 12.4743C50.4075 13.3096 50.4038 14.6604 49.5684 15.4912C49.1686 15.8889 48.6275 16.1121 48.0635 16.112H48.0571C46.879 16.1059 45.9287 15.1459 45.9348 13.9676C45.9378 13.4036 46.1639 12.8639 46.5638 12.4661H46.5596ZM44.0487 19.4752L42.8519 25.3664L40.5009 23.0016L44.0487 19.4752ZM42.837 17.6715L38.997 21.4891L36.0263 18.5024L42.837 17.6715ZM48.0082 57.6C49.7755 57.6 51.2082 59.0327 51.2082 60.8V61.8667H4.27481V60.8C4.27481 59.0327 5.70748 57.6 7.47481 57.6H48.0082ZM33.0748 53.3333V55.4667H22.4081V53.3333H33.0748ZM22.4081 51.2V43.0933C22.4081 40.5056 24.8007 38.4 27.7415 38.4C30.6823 38.4 33.0748 40.5056 33.0748 43.0933V51.2H22.4081ZM35.2082 47.808V43.0933C35.2082 39.3291 31.8588 36.2667 27.7415 36.2667C25.0793 36.2259 22.59 37.5809 21.1793 39.8389C13.0639 31.2913 11.2364 18.5485 16.6221 8.06467L53.8258 45.4816C48.081 48.404 41.4955 49.2268 35.2082 47.808ZM57.7863 46.4405L56.2834 44.9291L17.1815 5.59147L15.6721 4.07893L17.1815 2.57493L33.0513 18.5344C33.0588 18.5344 33.0631 18.5483 33.0706 18.5536L59.2999 44.9365L57.7863 46.4405Z" fill="#2E2F42"/>
  <path d="M27.751 40.5333H27.7414C25.9741 40.5307 24.5393 41.9612 24.5366 43.7285C24.534 45.4959 25.9645 46.9307 27.7318 46.9333H27.7414C29.5088 46.936 30.9436 45.5055 30.9462 43.7381C30.9489 41.9708 29.5184 40.536 27.751 40.5333ZM28.4977 44.4896C28.2969 44.6893 28.0248 44.8011 27.7414 44.8C27.1524 44.7969 26.6773 44.3169 26.6804 43.7279C26.6818 43.4459 26.7949 43.176 26.9948 42.9771C27.1933 42.7796 27.4614 42.6681 27.7414 42.6667C28.3305 42.6697 28.8056 43.1497 28.8025 43.7388C28.801 44.0208 28.688 44.2907 28.4881 44.4896H28.4977Z" fill="#4D5AE5"/>
</symbol>

   <symbol id="icon-clock" viewBox="0 0 64 64">
<path d="M62.5933 30.6025C62.5899 13.6978 48.8828 -0.00341734 31.9775 6.39362e-07C15.0728 0.00341861 1.37158 13.7109 1.375 30.6157C1.37793 43.9316 9.98877 55.7178 22.6738 59.7681C22.7949 59.8062 22.9209 59.8257 23.0474 59.8252C23.2886 59.8247 23.5249 59.7603 23.7324 59.6377C24.0024 59.478 24.2041 59.2241 24.2988 58.9248L32.0288 34.4248C34.1421 34.4141 35.8462 32.6919 35.835 30.5791C35.8242 28.4658 34.1025 26.7617 31.9893 26.7725C31.4209 26.7749 30.8599 26.9058 30.3491 27.1553L20.1372 16.9419C19.6304 16.4526 18.8232 16.4668 18.334 16.9731C17.8564 17.4678 17.8564 18.251 18.334 18.7456L28.5405 28.9639C27.7573 30.5625 28.2051 32.4922 29.6133 33.582L22.248 56.9277C7.69238 51.5659 0.239258 35.4199 5.60108 20.8643C10.9629 6.30859 27.1089 -1.14453 41.6646 4.21729C56.2202 9.5791 63.6733 25.7256 58.3115 40.2808C55.6919 47.3921 50.3096 53.1431 43.3872 56.2275L42.5913 52.479C42.4458 51.79 41.7686 51.3496 41.0796 51.4956C40.8623 51.542 40.6606 51.6441 40.4946 51.792L32.8208 58.6431C32.2944 59.1113 32.2476 59.9175 32.7163 60.4439C32.8687 60.6148 33.064 60.7417 33.2827 60.8115L43.0801 63.9385C43.7505 64.1538 44.4688 63.7852 44.6841 63.1143C44.7524 62.9024 44.7637 62.6768 44.7178 62.459L43.9356 58.7808C55.2642 54.0049 62.6196 42.8965 62.5933 30.6025ZM31.9844 29.3272C32.6885 29.3272 33.2598 29.8984 33.2598 30.6025C33.2598 31.3071 32.6885 31.8779 31.9844 31.8779C31.2798 31.8779 30.709 31.3071 30.709 30.6025C30.709 29.8984 31.2798 29.3272 31.9844 29.3272ZM36.1851 59.0552L40.5532 55.1587L41.7588 60.8394L36.1851 59.0552Z" fill="#2E2F42"/>
<path d="M30.709 6.37012V8.9209C30.709 9.62549 31.2798 10.1963 31.9844 10.1963C32.6885 10.1963 33.2598 9.62549 33.2598 8.9209V6.37012C33.2598 5.66602 32.6885 5.09473 31.9844 5.09473C31.2798 5.09473 30.709 5.66602 30.709 6.37012Z" fill="#4D5AE5"/>
<path d="M7.75195 29.3271C7.04736 29.3271 6.47656 29.8984 6.47656 30.6025C6.47656 31.3071 7.04736 31.8779 7.75195 31.8779H10.3027C11.0073 31.8779 11.5781 31.3071 11.5781 30.6025C11.5781 29.8984 11.0073 29.3271 10.3027 29.3271H7.75195Z" fill="#4D5AE5"/>
<path d="M56.2163 31.8779C56.9209 31.8779 57.4917 31.3071 57.4917 30.6025C57.4917 29.8984 56.9209 29.3271 56.2163 29.3271H53.6655C52.9614 29.3271 52.3901 29.8984 52.3901 30.6025C52.3901 31.3071 52.9614 31.8779 53.6655 31.8779H56.2163Z" fill="#4D5AE5"/>
</symbol>

    <symbol id="icon-astronaut" viewBox="0 0 64 64">
      <path d="M63.9481 9.04812C63.8223 8.66299 63.4895 8.38149 63.0874 8.32274L59.2666 7.76698L57.5567 4.30455C57.1983 3.57492 56.0025 3.57492 55.6441 4.30455L53.9342 7.76698L50.1133 8.32286C49.7112 8.38149 49.3784 8.66212 49.2514 9.04825C49.1267 9.43438 49.23 9.85889 49.5213 10.1416L52.2872 12.8372L51.6345 16.6431C51.5662 17.0431 51.7305 17.4474 52.058 17.6864C52.3897 17.9275 52.8227 17.9573 53.1822 17.7674L56.5999 15.97L60.0176 17.7674C60.1733 17.8495 60.3451 17.89 60.5147 17.89C60.7355 17.89 60.9563 17.8218 61.142 17.6863C61.4705 17.4474 61.6347 17.043 61.5655 16.643L60.9127 12.8371L63.6786 10.1415C63.9684 9.85776 64.073 9.43425 63.9481 9.04812ZM59.0223 11.702C58.7717 11.9463 58.6564 12.3004 58.7162 12.6461L59.0981 14.8743L57.097 13.8226C56.9413 13.7404 56.7707 13.6999 56.5999 13.6999C56.4293 13.6999 56.2596 13.7404 56.1028 13.8226L54.1016 14.8743L54.4835 12.6461C54.5432 12.3004 54.428 11.9474 54.1774 11.702L52.5571 10.1234L54.795 9.79801C55.1428 9.74788 55.4425 9.52926 55.5983 9.2145L56.5988 7.18785L57.5993 9.2145C57.755 9.52913 58.0548 9.74788 58.4026 9.79801L60.6405 10.1234L59.0223 11.702Z"/>
      <path d="M52.267 41.0444H50.1335V43.1778H52.267V41.0444Z"/>
      <path d="M52.267 45.3112H50.1335V47.4446H52.267V45.3112Z"/>
      <path d="M54.4004 43.1778H52.267V45.3112H54.4004V43.1778Z"/>
      <path d="M50.1337 43.1778H48.0002V45.3112H50.1337V43.1778Z"/>
      <path d="M44.8002 52.778H42.6668V54.9113H44.8002V52.778Z"/>
      <path d="M44.8002 57.0446H42.6668V59.178H44.8002V57.0446Z"/>
      <path d="M46.9336 54.9114H44.8002V57.0448H46.9336V54.9114Z"/>
      <path d="M42.6668 54.9114H40.5334V57.0448H42.6668V54.9114Z"/>
      <path d="M32 48.5113H29.8666V50.6447H32V48.5113Z"/>
      <path d="M32 52.778H29.8666V54.9113H32V52.778Z"/>
      <path d="M34.1334 50.6445H32V52.7779H34.1334V50.6445Z"/>
      <path d="M29.8666 50.6445H27.7332V52.7779H29.8666V50.6445Z"/>
      <path d="M11.733 12.2439H9.59961V14.3773H11.733V12.2439Z"/>
      <path d="M11.733 16.5108H9.59961V18.6442H11.733V16.5108Z"/>
      <path d="M13.8663 14.3774H11.7329V16.5108H13.8663V14.3774Z"/>
      <path d="M9.59965 14.3774H7.46625V16.5108H9.59965V14.3774Z"/>
      <path d="M49.4295 28.3189C48.8546 27.5434 48.0109 27.0443 47.053 26.9098C46.0908 26.7733 45.1414 27.026 44.3734 27.6138L41.8699 29.5327L41.8688 29.5338L38.0734 32.368L35.3577 31.2864C40.2004 29.1136 43.585 24.2698 43.585 18.6462C43.585 11.0002 37.3396 4.77933 29.6627 4.77933C21.9858 4.77933 15.7405 11.0002 15.7405 18.6462C15.7405 21.4175 16.5692 23.9945 17.9805 26.163L12.4529 26.115C12.4497 26.115 12.4465 26.115 12.4433 26.115C12.4262 26.115 12.4124 26.1235 12.3964 26.1247C12.2908 26.1289 12.1873 26.1503 12.086 26.1865C12.0604 26.1962 12.0338 26.2015 12.0093 26.2132C11.9965 26.2185 11.9837 26.2195 11.9709 26.2259L5.50468 29.4185C5.50356 29.4185 5.50256 29.4185 5.50256 29.4195L1.71575 31.2405C1.67412 31.2586 1.6315 31.2831 1.58987 31.3109C0.0804746 32.3156 -0.433659 34.289 0.393104 35.9018C0.833611 36.7594 1.5835 37.391 2.50514 37.68C2.86039 37.7908 3.22302 37.8453 3.58353 37.8453C4.16279 37.8453 4.73667 37.7035 5.26243 37.423L8.03798 35.9467L12.566 33.6085L15.2797 33.5925L4.39629 44.4237C4.39529 44.4248 4.39417 44.4248 4.39304 44.4258L1.71563 47.0925C1.08312 47.7219 0.73536 48.557 0.73536 49.4478C0.73536 50.3374 1.08312 51.1747 1.71563 51.8052C2.36526 52.4516 3.21965 52.7758 4.07404 52.7758C4.92955 52.7758 5.78281 52.4516 6.43457 51.8052L9.06287 49.1875L12.5445 46.588L14.3462 48.3821L10.8229 51.8904C10.8219 51.8916 10.8208 51.8916 10.8196 51.8926L8.14223 54.5592C7.50972 55.1886 7.16196 56.0237 7.16196 56.9145C7.16196 57.8041 7.50972 58.6414 8.14223 59.2719C8.79186 59.9183 9.64738 60.2426 10.5018 60.2426C11.3562 60.2426 12.2117 59.9183 12.8623 59.2719L15.5407 56.6052L19.8255 52.3386C19.8267 52.3374 19.8267 52.3364 19.8277 52.3353L21.8469 50.3353L21.8394 50.3278C21.8522 50.315 21.8703 50.3106 21.8832 50.2969L32.2151 38.9805L39.1571 39.9682C39.2072 39.9757 39.2573 39.9789 39.3075 39.9789C39.4366 39.9789 39.5613 39.948 39.6819 39.9021C39.7171 39.8894 39.748 39.8722 39.7811 39.8552C39.8195 39.836 39.86 39.8254 39.8964 39.8009L46.3231 35.5342C46.3466 35.5182 46.3593 35.4925 46.3817 35.4755C46.4073 35.4553 46.4393 35.4468 46.4627 35.4243L49.0056 33.0424C50.3288 31.8026 50.5111 29.7717 49.4295 28.3189ZM4.26079 35.5403C3.91416 35.7259 3.52053 35.7632 3.14402 35.6438C2.77064 35.5275 2.46776 35.2725 2.29063 34.928C1.9685 34.3008 2.15513 33.537 2.71939 33.1243L5.34668 31.8602L5.97919 33.7088L6.24482 34.4853L4.26079 35.5403ZM11.255 31.8849L8.15848 33.4849L7.64759 31.9915L7.28071 30.9184L11.3342 28.9172L11.255 31.8849ZM41.4539 18.644C41.4539 20.4808 41.0155 22.2132 40.256 23.763L31.8932 19.9646C31.8057 18.8179 31.2106 17.8142 30.3167 17.189L33.2447 7.46837C38.0001 8.98102 41.4539 13.4173 41.4539 18.644ZM17.876 18.644C17.876 12.1746 23.1646 6.91049 29.6649 6.91049C30.1706 6.91049 30.6655 6.95311 31.1551 7.01499L28.291 16.5224C28.2527 16.5213 28.2164 16.5106 28.1769 16.5106C26.1118 16.5106 24.4317 18.1853 24.4317 20.2441C24.4317 22.3027 26.1118 23.9775 28.1769 23.9775C29.5657 23.9775 30.7657 23.2106 31.4132 22.0883L39.1381 25.5978C36.9887 28.4906 33.5486 30.3776 29.6648 30.3776C23.1646 30.3776 17.876 25.1135 17.876 18.644ZM29.7887 20.2441C29.7887 21.1262 29.0654 21.8441 28.1769 21.8441C27.2884 21.8441 26.5651 21.1262 26.5651 20.2441C26.5651 19.3619 27.2884 18.644 28.1769 18.644C29.0654 18.644 29.7887 19.3619 29.7887 20.2441ZM4.92968 50.2925C4.45717 50.7608 3.69228 50.7598 3.2209 50.2936C2.99365 50.0664 2.86889 49.7668 2.86889 49.4478C2.86889 49.1299 2.99365 48.8301 3.2209 48.6051L5.14505 46.6882L6.84746 48.3832L4.92968 50.2925ZM11.3574 57.7594C10.8849 58.2276 10.119 58.2288 9.6475 57.7605C9.42025 57.5333 9.29549 57.2336 9.29549 56.9146C9.29549 56.5967 9.42025 56.297 9.6475 56.072L11.5729 54.1541L12.3783 54.9552L13.2764 55.8491L11.3574 57.7594ZM18.3208 50.8217C18.3196 50.8227 18.3186 50.8227 18.3175 50.8238L14.7878 54.3438L13.9824 53.5427L13.0843 52.6488L16.6107 49.1384C16.6107 49.1384 16.6107 49.1384 16.6107 49.1374C16.6119 49.1363 16.6129 49.1363 16.614 49.1353C16.694 49.0553 16.7441 48.9593 16.7932 48.8644C16.8071 48.8366 16.8337 48.8131 16.8455 48.7844C16.8786 48.7023 16.8839 48.6138 16.8967 48.5272C16.9031 48.4781 16.9245 48.4324 16.9245 48.3821C16.9245 48.3106 16.8989 48.2414 16.884 48.1709C16.8712 48.1069 16.8712 48.0417 16.8466 47.98C16.8061 47.8797 16.7367 47.7912 16.6642 47.7047C16.644 47.6812 16.6365 47.6514 16.6141 47.629C16.6141 47.629 16.6141 47.629 16.613 47.629C16.6119 47.628 16.6119 47.6257 16.6109 47.6247L13.3969 44.4247C13.3628 44.3906 13.3191 44.3767 13.2807 44.3479C13.2242 44.3042 13.1698 44.2637 13.1068 44.2327C13.0461 44.2028 12.9842 44.1847 12.9202 44.1676C12.8519 44.1483 12.7858 44.1334 12.7143 44.1281C12.6492 44.1238 12.5884 44.1302 12.5234 44.1377C12.4519 44.1462 12.3848 44.1558 12.3154 44.1782C12.2482 44.1996 12.1885 44.2326 12.1267 44.2678C12.0872 44.2902 12.0424 44.2977 12.005 44.3254L8.45836 46.973L6.6567 45.1788L11.4547 40.4065L20.1759 48.9838L18.3208 50.8217ZM31.9584 36.7883C31.9275 36.7841 31.8986 36.7958 31.8677 36.7937C31.7898 36.7894 31.7152 36.7948 31.6373 36.8076C31.5766 36.8182 31.519 36.8299 31.4613 36.8502C31.3931 36.8737 31.3312 36.9057 31.2682 36.9441C31.2085 36.9803 31.1541 37.0187 31.1018 37.0667C31.0762 37.0891 31.0453 37.0998 31.0218 37.1253L21.6253 47.4167L12.9692 38.9035L18.6354 33.2671C19.0525 32.8511 19.0546 32.1759 18.6386 31.7577C18.4285 31.5476 18.1523 31.4441 17.876 31.4452V31.4442L13.4386 31.4709L13.4941 28.2559L19.7022 28.3093C22.2323 30.8971 25.7609 32.511 29.6649 32.511C30.5396 32.511 31.393 32.4204 32.2239 32.2656C32.3039 32.3296 32.3827 32.3948 32.4831 32.4353L37.3024 34.3553L37.6074 35.8721L37.9637 37.6427L31.9584 36.7883ZM40.0406 37.1446L39.4145 34.0288L42.3073 31.8687L43.0647 32.8735L44.2007 34.3818L40.0406 37.1446ZM47.5478 31.4826L45.8721 33.0528L44.0097 30.5802L45.6726 29.3056C45.9829 29.0667 46.3745 28.9696 46.7585 29.0197C47.1446 29.0741 47.486 29.2757 47.7185 29.5882C48.1516 30.1717 48.078 30.9856 47.5478 31.4826Z"/>
      <path d="M27.2042 37.0881L22.9182 32.8214C22.5033 32.4065 21.8291 32.4065 21.4131 32.8214L17.1283 37.0881C16.9278 37.2897 16.8146 37.5606 16.8146 37.8444C16.8146 38.1281 16.9266 38.4001 17.1283 38.6006L21.4131 42.8673C21.6211 43.0742 21.8942 43.1777 22.1662 43.1777C22.4382 43.1777 22.7112 43.0742 22.9182 42.8673L27.2042 38.6006C27.4047 38.4001 27.5188 38.1281 27.5188 37.8444C27.5188 37.5606 27.4057 37.2886 27.2042 37.0881ZM22.1662 40.606L19.3928 37.8444L22.1662 35.0827L24.9406 37.8444L22.1662 40.606Z"/>
      <path d="M34.3285 10.1415L33.8133 12.2131C33.9552 12.2483 37.2886 13.1166 37.2886 16.5108H39.422C39.4219 12.4765 36.0907 10.5799 34.3285 10.1415Z"/>
      <path d="M39.422 18.644H37.2886V20.7775H39.422V18.644Z"/>
    </symbol>
  

     <symbol id="icon-diagram" viewBox="0 0 64 64">
      <path d="M29.8511 29.9292H31.9833V39.5242H29.8511V29.9292Z"/>
      <path d="M38.3799 34.1937H40.5121V39.5242H38.3799V34.1937Z"/>
      <path d="M21.3221 37.392H23.4544V39.5242H21.3221V37.392Z"/>
      <path d="M14.9255 36.3259H17.0578V39.5242H14.9255V36.3259Z"/>
      <path d="M3.19833 56.5819H54.3715C56.1378 56.5819 57.5699 55.1499 57.5699 53.3836V49.1192C57.5699 47.3529 56.1378 45.9209 54.3715 45.9209H53.3054V19.3343L59.3611 13.5977C60.7666 14.2905 62.4678 13.8699 63.3876 12.6003C64.308 11.3312 64.1789 9.58364 63.0826 8.46339C61.9863 7.34314 60.2424 7.17604 58.953 8.06776C57.6641 8.96 57.206 10.6513 57.8681 12.0719L53.3054 16.3973V13.9376C53.3054 12.1713 51.8734 10.7393 50.1071 10.7393H7.46276C5.6965 10.7393 4.26443 12.1713 4.26443 13.9376V45.9209H3.19833C1.43206 45.9209 0 47.3529 0 49.1192V53.3836C0 55.1499 1.43206 56.5819 3.19833 56.5819ZM60.7682 9.67317C61.3569 9.67317 61.8343 10.1505 61.8343 10.7393C61.8343 11.328 61.3569 11.8054 60.7682 11.8054C60.1794 11.8054 59.7021 11.328 59.7021 10.7393C59.7021 10.1505 60.1794 9.67317 60.7682 9.67317ZM6.39665 13.9376C6.39665 13.3489 6.874 12.8715 7.46276 12.8715H50.1071C50.6958 12.8715 51.1732 13.3489 51.1732 13.9376V18.4149L49.041 20.441V16.0698C49.041 15.4811 48.5636 15.0037 47.9749 15.0037H9.59498C9.00622 15.0037 8.52887 15.4811 8.52887 16.0698V42.7225C8.52887 43.3113 9.00622 43.7886 9.59498 43.7886H47.9749C48.5636 43.7886 49.041 43.3113 49.041 42.7225V23.3738L51.1732 21.3535V45.9209H6.39665V13.9376ZM15.9916 27.797C14.5492 27.7929 13.2826 28.7538 12.899 30.1442C12.5153 31.5346 13.1093 33.0094 14.3498 33.7455C15.5898 34.4815 17.1697 34.2967 18.2061 33.2936L21.912 35.1531C22.3425 35.3686 22.8646 35.2676 23.1847 34.9079L31.0624 26.0453L38.8062 31.848C39.2216 32.1593 39.8016 32.126 40.1784 31.7694L46.9088 25.3941V41.6564H10.6611V17.1359H46.9088V22.4566L39.3658 29.5997L31.5569 23.7455C31.1134 23.4134 30.4892 23.4758 30.1207 23.8897L22.1348 32.8751L19.1493 31.3821C19.1712 31.2541 19.1847 31.125 19.19 30.9953C19.19 29.2291 17.7579 27.797 15.9916 27.797ZM17.0577 30.9953C17.0577 31.5841 16.5804 32.0615 15.9916 32.0615C15.4029 32.0615 14.9255 31.5841 14.9255 30.9953C14.9255 30.4066 15.4029 29.9292 15.9916 29.9292C16.5804 29.9292 17.0577 30.4066 17.0577 30.9953ZM23.4544 48.0531H34.1155V49.1192C34.1155 49.7079 33.6381 50.1853 33.0494 50.1853H24.5205C23.9317 50.1853 23.4544 49.7079 23.4544 49.1192V48.0531ZM2.13222 49.1192C2.13222 48.5304 2.60957 48.0531 3.19833 48.0531H21.3222V49.1192C21.3222 50.8855 22.7542 52.3175 24.5205 52.3175H33.0494C34.8156 52.3175 36.2477 50.8855 36.2477 49.1192V48.0531H54.3715C54.9603 48.0531 55.4376 48.5304 55.4376 49.1192V53.3836C55.4376 53.9724 54.9603 54.4497 54.3715 54.4497H3.19833C2.60957 54.4497 2.13222 53.9724 2.13222 53.3836V49.1192Z"/>
    </symbol>
    
    <symbol id="icon-instagram" viewBox="0 0 40 40">
<defs>
<clipPath id="clip0_297016_416">
<rect width="24" height="24" fill="white" transform="translate(8 8.00006)"/>
</clipPath>
</defs>
<path d="M40 20C40 25.5228 37.7614 30.5228 34.1421 34.1421C30.5228 37.7614 25.5228 40 20 40C14.4772 40 9.47715 37.7614 5.85786 34.1421C2.23858 30.5228 0 25.5228 0 20C0 14.4771 2.23858 9.47712 5.85786 5.85783C9.47715 2.23855 14.4772 -3.05176e-05 20 -3.05176e-05C25.5228 -3.05176e-05 30.5228 2.23855 34.1421 5.85783C37.7614 9.47712 40 14.4771 40 20Z" fill="none"/>
<g clip-path="url(#clip0_297016_416)">
<path d="M31.9765 15.0561C31.9203 13.7809 31.7141 12.9042 31.4187 12.1445C31.1139 11.3382 30.6451 10.6162 30.0308 10.0161C29.4307 9.40659 28.704 8.93298 27.9069 8.633C27.1429 8.33759 26.2708 8.13137 24.9955 8.07515C23.7108 8.01416 23.303 8.00006 20.0445 8.00006C16.7861 8.00006 16.3782 8.01416 15.0982 8.07039C13.823 8.12661 12.9463 8.33301 12.1868 8.62824C11.3803 8.93298 10.6583 9.40182 10.0582 10.0161C9.4487 10.6162 8.97528 11.3429 8.67511 12.14C8.3797 12.9042 8.17349 13.7762 8.11726 15.0514C8.05628 16.3361 8.04218 16.744 8.04218 20.0024C8.04218 23.2609 8.05628 23.6687 8.1125 24.9487C8.16873 26.2239 8.37513 27.1006 8.67053 27.8603C8.97528 28.6666 9.4487 29.3886 10.0582 29.9887C10.6583 30.5982 11.385 31.0718 12.1821 31.3718C12.9463 31.6672 13.8183 31.8734 15.0937 31.9297C16.3734 31.9861 16.7815 32 20.0399 32C23.2984 32 23.7062 31.9861 24.9862 31.9297C26.2614 31.8734 27.1381 31.6672 27.8976 31.3718C29.5105 30.7482 30.7857 29.473 31.4093 27.8603C31.7046 27.096 31.911 26.2239 31.9672 24.9487C32.0234 23.6687 32.0375 23.2609 32.0375 20.0024C32.0375 16.744 32.0327 16.3361 31.9765 15.0561ZM29.8153 24.8549C29.7636 26.027 29.5667 26.66 29.4027 27.0819C28.9994 28.1275 28.1696 28.9573 27.124 29.3606C26.7021 29.5247 26.0645 29.7215 24.897 29.773C23.6311 29.8294 23.2515 29.8433 20.0493 29.8433C16.847 29.8433 16.4626 29.8294 15.2013 29.773C14.0292 29.7215 13.3963 29.5247 12.9743 29.3606C12.454 29.1683 11.9804 28.8635 11.596 28.465C11.1975 28.0758 10.8928 27.607 10.7005 27.0867C10.5364 26.6647 10.3395 26.027 10.288 24.8597C10.2316 23.5938 10.2177 23.214 10.2177 20.0117C10.2177 16.8095 10.2316 16.4251 10.288 15.164C10.3395 13.9919 10.5364 13.359 10.7005 12.937C10.8928 12.4165 11.1975 11.9431 11.6008 11.5585C11.9898 11.16 12.4586 10.8552 12.9791 10.6631C13.4011 10.499 14.0388 10.3021 15.2061 10.2505C16.472 10.1943 16.8518 10.1802 20.0538 10.1802C23.2608 10.1802 23.6405 10.1943 24.9018 10.2505C26.0739 10.3021 26.7068 10.499 27.1288 10.6631C27.6491 10.8552 28.1227 11.16 28.5071 11.5585C28.9056 11.9477 29.2104 12.4165 29.4027 12.937C29.5667 13.359 29.7636 13.9965 29.8153 15.164C29.8715 16.4299 29.8856 16.8095 29.8856 20.0117C29.8856 23.214 29.8715 23.589 29.8153 24.8549Z" fill="#F4F4FD"/>
<path d="M20.0445 13.8371C16.6409 13.8371 13.8793 16.5985 13.8793 20.0024C13.8793 23.4062 16.6409 26.1676 20.0445 26.1676C23.4484 26.1676 26.2098 23.4062 26.2098 20.0024C26.2098 16.5985 23.4484 13.8371 20.0445 13.8371ZM20.0445 24.0016C17.8364 24.0016 16.0453 22.2107 16.0453 20.0024C16.0453 17.794 17.8364 16.0031 20.0445 16.0031C22.2529 16.0031 24.0438 17.794 24.0438 20.0024C24.0438 22.2107 22.2529 24.0016 20.0445 24.0016Z" fill="#F4F4FD"/>
<path d="M27.893 13.5934C27.893 14.3882 27.2486 15.0327 26.4535 15.0327C25.6587 15.0327 25.0142 14.3882 25.0142 13.5934C25.0142 12.7983 25.6587 12.1541 26.4535 12.1541C27.2486 12.1541 27.893 12.7983 27.893 13.5934Z" fill="#F4F4FD"/>
</g>
</symbol>

    <symbol id="icon-twitter" viewBox="0 0 40 40">
<path d="M40 20C40 25.5228 37.7614 30.5228 34.1421 34.1421C30.5228 37.7614 25.5228 40 20 40C14.4772 40 9.47715 37.7614 5.85786 34.1421C2.23858 30.5228 0 25.5228 0 20C0 14.4771 2.23858 9.47712 5.85786 5.85783C9.47715 2.23855 14.4772 -3.05176e-05 20 -3.05176e-05C25.5228 -3.05176e-05 30.5228 2.23855 34.1421 5.85783C37.7614 9.47712 40 14.4771 40 20Z" fill="none"/>
<path d="M32 12.5586C31.1075 12.9501 30.1565 13.2096 29.165 13.3356C30.185 12.7266 30.9635 11.7696 31.3295 10.6161C30.3785 11.1831 29.3285 11.5836 28.2095 11.8071C27.3065 10.8456 26.0195 10.2501 24.6155 10.2501C21.8915 10.2501 19.6985 12.4611 19.6985 15.1716C19.6985 15.5616 19.7315 15.9366 19.8125 16.2936C15.722 16.0941 12.1025 14.1336 9.671 11.1471C9.2465 11.8836 8.9975 12.7266 8.9975 13.6341C8.9975 15.3381 9.875 16.8486 11.183 17.7231C10.3925 17.7081 9.617 17.4786 8.96 17.1171C8.96 17.1321 8.96 17.1516 8.96 17.1711C8.96 19.5621 10.6655 21.5481 12.902 22.0056C12.5015 22.1151 12.065 22.1676 11.612 22.1676C11.297 22.1676 10.979 22.1496 10.6805 22.0836C11.318 24.0321 13.127 25.4646 15.278 25.5111C13.604 26.8206 11.4785 27.6096 9.1775 27.6096C8.774 27.6096 8.387 27.5916 8 27.5421C10.1795 28.9476 12.7625 29.7501 15.548 29.7501C24.602 29.7501 29.552 22.2501 29.552 15.7491C29.552 15.5316 29.5445 15.3216 29.534 15.1131C30.5105 14.4201 31.331 13.5546 32 12.5586Z" fill="#F4F4FD"/>
</symbol>

  
    <symbol id="icon-facebook" viewBox="0 0 40 40">
<path d="M40 20C40 25.5228 37.7614 30.5228 34.1421 34.1421C30.5228 37.7614 25.5228 40 20 40C14.4772 40 9.47715 37.7614 5.85786 34.1421C2.23858 30.5228 0 25.5228 0 20C0 14.4771 2.23858 9.47712 5.85786 5.85783C9.47715 2.23855 14.4772 -3.05176e-05 20 -3.05176e-05C25.5228 -3.05176e-05 30.5228 2.23855 34.1421 5.85783C37.7614 9.47712 40 14.4771 40 20Z" fill="none"/>
<g clip-path="url(#clip0_297016_432)">
<path d="M23.997 11.9851H26.188V8.16906C25.81 8.11706 24.51 8.00006 22.996 8.00006C19.837 8.00006 17.673 9.98706 17.673 13.6391V17.0001H14.187V21.2661H17.673V32.0001H21.947V21.2671H25.292L25.823 17.0011H21.946V14.0621C21.947 12.8291 22.279 11.9851 23.997 11.9851Z" fill="#F4F4FD"/>
</g>
<defs>
<clipPath id="clip0_297016_432">
<rect width="24" height="24" fill="white" transform="translate(8 8.00006)"/>
</clipPath>
</defs>
</symbol>

<symbol id="icon-linkedin" viewBox="0 0 40 40">
<path d="M40 20C40 25.5228 37.7614 30.5228 34.1421 34.1421C30.5228 37.7614 25.5228 40 20 40C14.4772 40 9.47715 37.7614 5.85786 34.1421C2.23858 30.5228 0 25.5228 0 20C0 14.4771 2.23858 9.47712 5.85786 5.85783C9.47715 2.23855 14.4772 -3.05176e-05 20 -3.05176e-05C25.5228 -3.05176e-05 30.5228 2.23855 34.1421 5.85783C37.7614 9.47712 40 14.4771 40 20Z" fill="none"/>
<g clip-path="url(#clip0_297016_438)">
<path d="M31.994 32.0001V31.9991H32V23.1971C32 18.8911 31.073 15.5741 26.039 15.5741C23.619 15.5741 21.995 16.9021 21.332 18.1611H21.262V15.9761H16.489V31.9991H21.459V24.0651C21.459 21.9761 21.855 19.9561 24.442 19.9561C26.991 19.9561 27.029 22.3401 27.029 24.1991V32.0001H31.994Z" fill="#F4F4FD"/>
<path d="M8.396 15.977H13.372V32H8.396V15.977Z" fill="#F4F4FD"/>
<path d="M10.882 8.00006C9.291 8.00006 8 9.29106 8 10.8821C8 12.4731 9.291 13.7911 10.882 13.7911C12.473 13.7911 13.764 12.4731 13.764 10.8821C13.763 9.29106 12.472 8.00006 10.882 8.00006V8.00006Z" fill="#F4F4FD"/>
</g>
<defs>
<clipPath id="clip0_297016_438">
<rect width="24" height="24" fill="white" transform="translate(8 8.00006)"/>
</clipPath>
</defs>
</symbol>


  </defs>
</svg>
